<?xml version="1.0" encoding="UTF-8"?>
<svg xmlns="http://www.w3.org/2000/svg" xmlns:xlink="http://www.w3.org/1999/xlink" width="78px" height="59px" viewBox="0 0 78 59" version="1.1">
<defs>
<clipPath id="clip1">
  <path d="M 46 15 L 67.980469 15 L 67.980469 39 L 46 39 Z M 46 15 "/>
</clipPath>
<clipPath id="clip2">
  <path d="M 49 22 L 67.980469 22 L 67.980469 39 L 49 39 Z M 49 22 "/>
</clipPath>
</defs>
<g id="surface1">
<path style=" stroke:none;fill-rule:nonzero;fill:rgb(67.843139%,47.450981%,88.235295%);fill-opacity:1;" d="M 13.296875 15.207031 L 43.582031 15.207031 C 45.371094 15.207031 46.824219 16.660156 46.824219 18.453125 L 46.824219 35.933594 C 46.824219 37.726562 45.371094 39.179688 43.582031 39.179688 L 13.296875 39.179688 C 11.503906 39.179688 10.054688 37.726562 10.054688 35.933594 L 10.054688 18.453125 C 10.054688 16.660156 11.503906 15.207031 13.296875 15.207031 Z M 13.296875 15.207031 "/>
<path style=" stroke:none;fill-rule:nonzero;fill:rgb(98.039216%,98.431373%,99.215686%);fill-opacity:1;" d="M 26.351562 26.453125 C 26.351562 28.796875 25.699219 30.425781 24.390625 31.347656 C 23.183594 32.203125 21.527344 32.628906 19.417969 32.628906 L 14.632812 32.628906 L 14.632812 32.304688 L 15.746094 32.304688 L 15.746094 21.011719 L 14.632812 21.011719 L 14.632812 20.6875 L 19.859375 20.6875 C 22.023438 20.6875 23.644531 21.136719 24.726562 22.027344 C 25.808594 22.921875 26.351562 24.394531 26.351562 26.453125 M 19.046875 32.304688 L 19.6875 32.304688 C 20.828125 32.304688 21.640625 31.898438 22.132812 31.085938 C 22.621094 30.269531 22.867188 28.910156 22.867188 27 L 22.867188 26.011719 C 22.867188 23.453125 22.382812 21.910156 21.414062 21.386719 C 20.949219 21.136719 20.296875 21.011719 19.453125 21.011719 L 19.046875 21.011719 Z M 19.046875 32.304688 "/>
<path style=" stroke:none;fill-rule:nonzero;fill:rgb(98.039216%,98.431373%,99.215686%);fill-opacity:1;" d="M 31.660156 32.796875 C 30.207031 32.796875 29.117188 32.421875 28.390625 31.664062 C 27.664062 30.910156 27.300781 29.855469 27.300781 28.507812 C 27.300781 27.160156 27.707031 26.128906 28.527344 25.414062 C 29.34375 24.695312 30.382812 24.339844 31.644531 24.339844 C 34.203125 24.339844 35.433594 25.636719 35.332031 28.226562 L 30.5625 28.226562 L 30.5625 28.890625 C 30.5625 30.007812 30.703125 30.847656 30.984375 31.417969 C 31.269531 31.984375 31.757812 32.269531 32.457031 32.269531 C 33.765625 32.269531 34.621094 31.566406 35.027344 30.15625 L 35.332031 30.207031 C 35.117188 31.023438 34.730469 31.660156 34.175781 32.117188 C 33.617188 32.570312 32.777344 32.796875 31.660156 32.796875 M 30.578125 27.886719 L 32.320312 27.886719 L 32.320312 27.050781 C 32.320312 26.128906 32.269531 25.5 32.160156 25.167969 C 32.054688 24.832031 31.839844 24.664062 31.519531 24.664062 C 31.195312 24.664062 30.960938 24.839844 30.808594 25.199219 C 30.65625 25.558594 30.578125 26.175781 30.578125 27.050781 Z M 30.578125 27.886719 "/>
<path style=" stroke:none;fill-rule:nonzero;fill:rgb(98.039216%,98.431373%,99.215686%);fill-opacity:1;" d="M 35.347656 24.816406 L 35.347656 24.507812 L 40.40625 24.507812 L 40.40625 24.816406 L 39.339844 24.816406 L 41.371094 30.480469 L 43.195312 24.816406 L 42.0625 24.816406 L 42.0625 24.507812 L 44.347656 24.507812 L 44.347656 24.816406 L 43.601562 24.816406 L 41.101562 32.628906 L 39.171875 32.628906 L 36.042969 24.816406 Z M 35.347656 24.816406 "/>
<g clip-path="url(#clip1)" clip-rule="nonzero">
<path style=" stroke:none;fill-rule:nonzero;fill:rgb(47.450981%,87.843138%,68.235296%);fill-opacity:1;" d="M 61.316406 38.539062 L 48.125 38.539062 C 47.070312 38.539062 46.363281 37.816406 46.363281 36.746094 L 46.363281 17.289062 C 46.363281 16.246094 47.070312 15.542969 48.125 15.542969 L 64.726562 15.542969 C 65.824219 15.542969 67.050781 16.289062 67.050781 17.289062 L 67.050781 33.34375 C 67.050781 33.421875 67.015625 33.5 66.953125 33.554688 L 61.578125 38.441406 C 61.507812 38.503906 61.414062 38.535156 61.316406 38.535156 Z M 48.125 16.160156 C 47.152344 16.160156 47.074219 17.023438 47.074219 17.289062 L 47.074219 36.746094 C 47.074219 37.316406 47.351562 37.921875 48.125 37.921875 L 61.164062 37.921875 L 66.335938 33.21875 L 66.335938 17.289062 C 66.335938 16.664062 65.457031 16.160156 64.726562 16.160156 Z M 48.125 16.160156 "/>
</g>
<g clip-path="url(#clip2)" clip-rule="nonzero">
<path style=" stroke:none;fill-rule:nonzero;fill:rgb(47.450981%,87.843138%,68.235296%);fill-opacity:1;" d="M 49.816406 22.640625 L 63.597656 22.640625 L 63.597656 23.257812 L 49.816406 23.257812 Z M 49.816406 24.6875 L 63.597656 24.6875 L 63.597656 25.304688 L 49.816406 25.304688 Z M 49.816406 26.730469 L 60.503906 26.730469 L 60.503906 27.347656 L 49.816406 27.347656 Z M 61.347656 38.539062 C 61.152344 38.539062 60.992188 38.398438 60.992188 38.230469 L 60.992188 34.800781 C 60.992188 33.757812 61.699219 33.054688 62.757812 33.054688 L 66.695312 33.054688 C 66.890625 33.054688 67.050781 33.195312 67.050781 33.363281 C 67.050781 33.535156 66.890625 33.671875 66.695312 33.671875 L 62.757812 33.671875 C 61.78125 33.671875 61.707031 34.539062 61.707031 34.800781 L 61.707031 38.230469 C 61.707031 38.398438 61.546875 38.539062 61.347656 38.539062 Z M 61.347656 38.539062 "/>
</g>
</g>
</svg>
