<svg xmlns="http://www.w3.org/2000/svg" version="1.1" xmlns:xlink="http://www.w3.org/1999/xlink" width="2000" height="262" viewBox="0 0 2000 262"><svg xml:space="preserve" width="2000" height="262" data-version="2" data-id="lg_FHG4QzPVYE4G5d1unV" viewBox="0 0 633 262" x="0" y="0"><rect width="100%" height="100%" fill="transparent"></rect><rect width="215.49" height="140.39" x="-107.75" y="-70.2" fill="#ad79e1" paint-order="stroke" rx="19" ry="19" transform="matrix(1.8463 0 0 1.8319 205.14 131)"></rect><path fill="#fff" d="M182.55 123.05q0 37.7-21.23 52.52-19.58 13.73-53.8 13.73H55.73v-3.48h12.08V64.68H55.73V61.2h56.55q35.13 0 52.7 14.37 17.57 14.36 17.57 47.48m-79.06-58.37v121.14h6.96q18.48 0 26.44-13.08 7.96-13.09 7.96-43.83V118.3q0-41.18-15.74-49.6-7.5-4.02-21.22-4.02z" paint-order="stroke"></path><rect width="126.82" height="128.1" x="-63.41" y="-64.05" fill="none" rx="0" ry="0" transform="translate(119.64 125.75)"></rect><path fill="#fff" d="M240.01 191.13q-23.6 0-35.41-12.17-11.8-12.17-11.8-33.85 0-21.69 13.27-33.22 13.26-11.53 33.76-11.53 41.54 0 39.89 41.73h-51.6v7.13q0 17.94 4.57 27.09 4.58 9.15 15.92 9.15 21.23 0 27.82-22.7l3.29.55q-3.47 13.18-12.53 20.5-9.06 7.32-27.18 7.32m-11.71-61.67v8.97h18.85v-8.97q0-14.82-1.74-20.22-1.74-5.4-6.95-5.4-5.22 0-7.69 5.76-2.47 5.77-2.47 19.86" paint-order="stroke"></path><rect width="87.42" height="90.77" x="-43.71" y="-45.38" fill="none" rx="0" ry="0" transform="translate(237.01 146.25)"></rect><path fill="#fff" d="M291.98 105.49h-7.5v-3.3h54.72v3.3h-11.53l21.96 60.75 19.76-60.75h-12.26v-3.3h24.71v3.3h-8.05L346.7 189.3h-20.86z" paint-order="stroke"></path><rect width="97.36" height="87.11" x="-48.68" y="-43.55" fill="none" rx="0" ry="0" transform="translate(333.66 146.25)"></rect><path fill="#79e0ae" d="M560.901 252.697h-142.74c-11.416 0-19.09-7.714-19.09-19.198V24.743c0-11.207 7.674-18.738 19.094-18.738h179.607c11.88 0 25.16 8.015 25.16 18.738v172.225c0 .85-.378 1.665-1.062 2.284l-58.169 52.412a3.862 3.31 0 0 1-2.8 1.026zM418.161 12.623c-10.543 0-11.365 9.276-11.365 12.116V233.5c0 6.082 2.989 12.577 11.37 12.577h141.078l55.964-50.432V24.743c0-6.71-9.539-12.117-17.436-12.117z"></path><path fill="#79e0ae" d="M436.429 82.143h149.15v6.621H436.43zm0 21.949h149.15v6.62H436.43zm0 21.949h115.667v6.62H436.429zm124.804 126.655a3.862 3.31 0 0 1-3.862-3.31v-36.764c0-11.206 7.674-18.737 19.09-18.737h42.61a3.862 3.31 0 1 1 0 6.62h-42.606c-10.543 0-11.366 9.277-11.366 12.117v36.767a3.862 3.31 0 0 1-3.862 3.31z"></path></svg></svg>